<svg width="50" height="50" viewBox="0 0 50 50" fill="none" xmlns="http://www.w3.org/2000/svg">
<path fill-rule="evenodd" clip-rule="evenodd" d="M2.9656 1.83443C2.81472 1.68871 2.61264 1.60807 2.40288 1.60989C2.19312 1.61172 1.99247 1.69585 1.84414 1.84418C1.69582 1.9925 1.61168 2.19315 1.60986 2.40291C1.60804 2.61267 1.68867 2.81475 1.8344 2.96563L13.0344 14.1656C13.1853 14.3114 13.3874 14.392 13.5971 14.3902C13.8069 14.3884 14.0075 14.3042 14.1559 14.1559C14.3042 14.0076 14.3883 13.8069 14.3901 13.5972C14.392 13.3874 14.3113 13.1853 14.1656 13.0344L12.9872 11.856C14.2332 10.8625 15.1546 9.51997 15.6336 8.00003C14.6144 4.75443 11.5824 2.40003 8 2.40003C6.74594 2.39833 5.5092 2.69272 4.3904 3.25923L2.9656 1.83443ZM6.3744 5.24243L7.5856 6.45443C7.85687 6.38239 8.14231 6.38287 8.41334 6.45582C8.68437 6.52876 8.93148 6.67162 9.12995 6.87009C9.32841 7.06855 9.47127 7.31567 9.54422 7.5867C9.61716 7.85773 9.61764 8.14316 9.5456 8.41443L10.7568 9.62563C11.1176 9.01445 11.265 8.30067 11.1757 7.59657C11.0865 6.89248 10.7657 6.23803 10.2639 5.73618C9.762 5.23432 9.10755 4.91355 8.40346 4.82431C7.69936 4.73508 6.98558 4.88164 6.3744 5.24243Z" fill="#8E8E8E"/>
<path d="M9.9632 13.3577L7.8 11.1937C7.02215 11.1449 6.28882 10.814 5.73765 10.263C5.18647 9.71193 4.85534 8.97869 4.8064 8.20085L1.868 5.26245C1.19217 6.06726 0.681879 6.99758 0.3664 8.00005C1.3856 11.2457 4.4184 13.6001 8 13.6001C8.6776 13.6001 9.3352 13.5161 9.9632 13.3577Z" fill="#8E8E8E"/>
</svg>
