<svg width="50" height="50" viewBox="0 0 50 50" fill="none" xmlns="http://www.w3.org/2000/svg">
<path d="M8 9.5999C8.42435 9.5999 8.83131 9.43133 9.13137 9.13127C9.43143 8.83121 9.6 8.42425 9.6 7.9999C9.6 7.57556 9.43143 7.16859 9.13137 6.86853C8.83131 6.56847 8.42435 6.3999 8 6.3999C7.57565 6.3999 7.16869 6.56847 6.86863 6.86853C6.56857 7.16859 6.4 7.57556 6.4 7.9999C6.4 8.42425 6.56857 8.83121 6.86863 9.13127C7.16869 9.43133 7.57565 9.5999 8 9.5999Z" fill="#8E8E8E"/>
<path fill-rule="evenodd" clip-rule="evenodd" d="M0.3664 7.9999C1.3856 4.7543 4.4176 2.3999 8 2.3999C11.5824 2.3999 14.6144 4.7543 15.6336 7.9999C14.6144 11.2455 11.5824 13.5999 8 13.5999C4.4176 13.5999 1.3856 11.2455 0.3664 7.9999ZM11.2 7.9999C11.2 8.8486 10.8629 9.66253 10.2627 10.2626C9.66263 10.8628 8.84869 11.1999 8 11.1999C7.15131 11.1999 6.33737 10.8628 5.73726 10.2626C5.13714 9.66253 4.8 8.8486 4.8 7.9999C4.8 7.15121 5.13714 6.33728 5.73726 5.73716C6.33737 5.13704 7.15131 4.7999 8 4.7999C8.84869 4.7999 9.66263 5.13704 10.2627 5.73716C10.8629 6.33728 11.2 7.15121 11.2 7.9999Z" fill="#8E8E8E"/>
</svg>
