<svg width="100" height="100" viewBox="0 0 100 100" fill="none" xmlns="http://www.w3.org/2000/svg">
<circle cx="50" cy="50" r="50" fill="#FF8C4F"/>
<path d="M36.186 53.7271L45.2603 44.6529L22.751 22.1757C20.3489 24.5847 19 27.8479 19 31.2499C19 34.6519 20.3489 37.9151 22.751 40.3242L36.186 53.7271ZM57.9258 47.9234C62.8316 50.2 69.7255 48.5968 74.8237 43.4985C80.948 37.3742 82.1344 28.5886 77.421 23.8751C72.7395 19.1937 63.9539 20.348 57.7975 26.4723C52.6992 31.5706 51.096 38.4644 53.3726 43.3703L22.0777 74.6652L26.5988 79.1863L48.6912 57.158L70.7515 79.2184L75.2726 74.6973L53.2123 52.6369L57.9258 47.9234Z" fill="white"/>
</svg>
