<svg width="25" height="25" viewBox="0 0 25 25" fill="none" xmlns="http://www.w3.org/2000/svg">
<circle cx="12.5" cy="12.5" r="12.5" fill="#FF8C4F"/>
<path d="M9.04651 13.4318L11.3151 11.1632L5.68776 5.54392C5.08723 6.14618 4.75 6.96198 4.75 7.81248C4.75 8.66298 5.08723 9.47878 5.68776 10.081L9.04651 13.4318ZM14.4814 11.9809C15.7079 12.55 17.4314 12.1492 18.7059 10.8746C20.237 9.34356 20.5336 7.14714 19.3552 5.96877C18.1849 4.79842 15.9885 5.087 14.4494 6.61808C13.1748 7.89264 12.774 9.61611 13.3432 10.8426L5.51942 18.6663L6.64969 19.7966L12.1728 14.2895L17.6879 19.8046L18.8182 18.6743L13.3031 13.1592L14.4814 11.9809Z" fill="white"/>
</svg>
