<svg width="16" height="19" viewBox="0 0 16 19" fill="none" xmlns="http://www.w3.org/2000/svg">
<path fill-rule="evenodd" clip-rule="evenodd" d="M0 7.82848C0 3.49919 3.61777 0 7.99383 0C12.3822 0 16 3.49919 16 7.82848C16 10.0101 15.2066 12.0354 13.9007 13.7521C12.4601 15.6457 10.6844 17.2955 8.68569 18.5905C8.22825 18.8898 7.81541 18.9124 7.31336 18.5905C5.30328 17.2955 3.52761 15.6457 2.09929 13.7521C0.792455 12.0354 0 10.0101 0 7.82848ZM5.35926 8.07222C5.35926 9.52253 6.54272 10.6632 7.99382 10.6632C9.44586 10.6632 10.6407 9.52253 10.6407 8.07222C10.6407 6.6332 9.44586 5.437 7.99382 5.437C6.54272 5.437 5.35926 6.6332 5.35926 8.07222Z" fill="#8E8E8E"/>
</svg>
