<svg width="240" height="49" viewBox="0 0 240 49" fill="none" xmlns="http://www.w3.org/2000/svg">
<g filter="url(#filter0_d_68_459)">
<path d="M209.85 25.4567L215.038 20.2684L202.168 7.41671C200.795 8.79411 200.024 10.6599 200.024 12.605C200.024 14.5502 200.795 16.416 202.168 17.7934L209.85 25.4567ZM222.28 22.1384C225.085 23.44 229.027 22.5234 231.942 19.6084C235.443 16.1067 236.122 11.0834 233.427 8.38838C230.75 5.71171 225.727 6.37171 222.207 9.87338C219.292 12.7884 218.375 16.73 219.677 19.535L201.783 37.4284L204.368 40.0134L217 27.4184L229.613 40.0317L232.198 37.4467L219.585 24.8334L222.28 22.1384Z" fill="white"/>
</g>
<g filter="url(#filter1_d_68_459)">
<path d="M4.592 37V10.18H9.272L19.316 23.824H17.084L26.912 10.18H31.592V37H26.66V15.76L28.568 16.228L18.38 29.8H17.804L7.868 16.228L9.488 15.76V37H4.592ZM45.6168 37.432C43.6008 37.432 41.8368 36.976 40.3248 36.064C38.8128 35.152 37.6368 33.916 36.7968 32.356C35.9568 30.796 35.5368 29.068 35.5368 27.172C35.5368 25.204 35.9568 23.464 36.7968 21.952C37.6608 20.416 38.8248 19.204 40.2888 18.316C41.7768 17.428 43.4328 16.984 45.2568 16.984C46.7928 16.984 48.1368 17.236 49.2888 17.74C50.4648 18.244 51.4608 18.94 52.2768 19.828C53.0928 20.716 53.7168 21.736 54.1488 22.888C54.5808 24.016 54.7968 25.24 54.7968 26.56C54.7968 26.896 54.7728 27.244 54.7248 27.604C54.7008 27.964 54.6408 28.276 54.5448 28.54H39.4248V24.94H51.8808L49.6488 26.632C49.8648 25.528 49.8048 24.544 49.4688 23.68C49.1568 22.816 48.6288 22.132 47.8848 21.628C47.1648 21.124 46.2888 20.872 45.2568 20.872C44.2728 20.872 43.3968 21.124 42.6288 21.628C41.8608 22.108 41.2728 22.828 40.8648 23.788C40.4808 24.724 40.3368 25.864 40.4328 27.208C40.3368 28.408 40.4928 29.476 40.9008 30.412C41.3328 31.324 41.9568 32.032 42.7728 32.536C43.6128 33.04 44.5728 33.292 45.6528 33.292C46.7328 33.292 47.6448 33.064 48.3888 32.608C49.1568 32.152 49.7568 31.54 50.1888 30.772L54.0048 32.644C53.6208 33.58 53.0208 34.408 52.2048 35.128C51.3888 35.848 50.4168 36.412 49.2888 36.82C48.1848 37.228 46.9608 37.432 45.6168 37.432ZM58.3718 37V17.416H62.7998V21.268L62.4398 20.584C62.8958 19.408 63.6398 18.52 64.6718 17.92C65.7278 17.296 66.9518 16.984 68.3438 16.984C69.7838 16.984 71.0558 17.296 72.1598 17.92C73.2878 18.544 74.1638 19.42 74.7878 20.548C75.4118 21.652 75.7238 22.936 75.7238 24.4V37H71.0078V25.516C71.0078 24.652 70.8398 23.908 70.5038 23.284C70.1678 22.66 69.6998 22.18 69.0998 21.844C68.5238 21.484 67.8398 21.304 67.0478 21.304C66.2798 21.304 65.5958 21.484 64.9958 21.844C64.3958 22.18 63.9278 22.66 63.5918 23.284C63.2558 23.908 63.0878 24.652 63.0878 25.516V37H58.3718ZM86.6956 37.432C85.1836 37.432 83.8636 37.096 82.7356 36.424C81.6316 35.752 80.7796 34.816 80.1796 33.616C79.6036 32.416 79.3156 31.012 79.3156 29.404V17.416H84.0316V29.008C84.0316 29.824 84.1876 30.544 84.4996 31.168C84.8356 31.768 85.3036 32.248 85.9036 32.608C86.5276 32.944 87.2236 33.112 87.9916 33.112C88.7596 33.112 89.4436 32.944 90.0436 32.608C90.6436 32.248 91.1116 31.756 91.4476 31.132C91.7836 30.508 91.9516 29.764 91.9516 28.9V17.416H96.6676V37H92.2036V33.148L92.5996 33.832C92.1436 35.032 91.3876 35.932 90.3316 36.532C89.2996 37.132 88.0876 37.432 86.6956 37.432ZM107.846 37V10.18H112.526L122.57 23.824H120.338L130.166 10.18H134.846V37H129.914V15.76L131.822 16.228L121.634 29.8H121.058L111.122 16.228L112.742 15.76V37H107.846ZM145.523 37.432C144.155 37.432 142.967 37.204 141.959 36.748C140.951 36.292 140.171 35.644 139.619 34.804C139.067 33.94 138.791 32.944 138.791 31.816C138.791 30.736 139.031 29.776 139.511 28.936C139.991 28.072 140.735 27.352 141.743 26.776C142.751 26.2 144.023 25.792 145.559 25.552L151.967 24.508V28.108L146.459 29.044C145.523 29.212 144.827 29.512 144.371 29.944C143.915 30.376 143.687 30.94 143.687 31.636C143.687 32.308 143.939 32.848 144.443 33.256C144.971 33.64 145.619 33.832 146.387 33.832C147.371 33.832 148.235 33.628 148.979 33.22C149.747 32.788 150.335 32.2 150.743 31.456C151.175 30.712 151.391 29.896 151.391 29.008V23.968C151.391 23.128 151.055 22.432 150.383 21.88C149.735 21.304 148.871 21.016 147.791 21.016C146.783 21.016 145.883 21.292 145.091 21.844C144.323 22.372 143.759 23.08 143.399 23.968L139.547 22.096C139.931 21.064 140.531 20.176 141.347 19.432C142.187 18.664 143.171 18.064 144.299 17.632C145.427 17.2 146.651 16.984 147.971 16.984C149.579 16.984 150.995 17.284 152.219 17.884C153.443 18.46 154.391 19.276 155.063 20.332C155.759 21.364 156.107 22.576 156.107 23.968V37H151.643V33.652L152.651 33.58C152.147 34.42 151.547 35.128 150.851 35.704C150.155 36.256 149.363 36.688 148.475 37C147.587 37.288 146.603 37.432 145.523 37.432ZM169.042 37.216C166.834 37.216 165.118 36.616 163.894 35.416C162.694 34.192 162.094 32.476 162.094 30.268V21.628H158.71V17.416H159.07C160.03 17.416 160.774 17.164 161.302 16.66C161.83 16.156 162.094 15.424 162.094 14.464V12.952H166.81V17.416H171.31V21.628H166.81V30.016C166.81 30.664 166.918 31.216 167.134 31.672C167.374 32.128 167.734 32.476 168.214 32.716C168.718 32.956 169.354 33.076 170.122 33.076C170.29 33.076 170.482 33.064 170.698 33.04C170.938 33.016 171.166 32.992 171.382 32.968V37C171.046 37.048 170.662 37.096 170.23 37.144C169.798 37.192 169.402 37.216 169.042 37.216ZM184.097 37.432C182.081 37.432 180.317 36.976 178.805 36.064C177.293 35.152 176.117 33.916 175.277 32.356C174.437 30.796 174.017 29.068 174.017 27.172C174.017 25.204 174.437 23.464 175.277 21.952C176.141 20.416 177.305 19.204 178.769 18.316C180.257 17.428 181.913 16.984 183.737 16.984C185.273 16.984 186.617 17.236 187.769 17.74C188.945 18.244 189.941 18.94 190.757 19.828C191.573 20.716 192.197 21.736 192.629 22.888C193.061 24.016 193.277 25.24 193.277 26.56C193.277 26.896 193.253 27.244 193.205 27.604C193.181 27.964 193.121 28.276 193.025 28.54H177.905V24.94H190.361L188.129 26.632C188.345 25.528 188.285 24.544 187.949 23.68C187.637 22.816 187.109 22.132 186.365 21.628C185.645 21.124 184.769 20.872 183.737 20.872C182.753 20.872 181.877 21.124 181.109 21.628C180.341 22.108 179.753 22.828 179.345 23.788C178.961 24.724 178.817 25.864 178.913 27.208C178.817 28.408 178.973 29.476 179.381 30.412C179.813 31.324 180.437 32.032 181.253 32.536C182.093 33.04 183.053 33.292 184.133 33.292C185.213 33.292 186.125 33.064 186.869 32.608C187.637 32.152 188.237 31.54 188.669 30.772L192.485 32.644C192.101 33.58 191.501 34.408 190.685 35.128C189.869 35.848 188.897 36.412 187.769 36.82C186.665 37.228 185.441 37.432 184.097 37.432Z" fill="white"/>
</g>
<defs>
<filter id="filter0_d_68_459" x="191" y="1" width="52" height="52" filterUnits="userSpaceOnUse" color-interpolation-filters="sRGB">
<feFlood flood-opacity="0" result="BackgroundImageFix"/>
<feColorMatrix in="SourceAlpha" type="matrix" values="0 0 0 0 0 0 0 0 0 0 0 0 0 0 0 0 0 0 127 0" result="hardAlpha"/>
<feOffset dy="4"/>
<feGaussianBlur stdDeviation="2"/>
<feComposite in2="hardAlpha" operator="out"/>
<feColorMatrix type="matrix" values="0 0 0 0 0 0 0 0 0 0 0 0 0 0 0 0 0 0 0.25 0"/>
<feBlend mode="normal" in2="BackgroundImageFix" result="effect1_dropShadow_68_459"/>
<feBlend mode="normal" in="SourceGraphic" in2="effect1_dropShadow_68_459" result="shape"/>
</filter>
<filter id="filter1_d_68_459" x="0.591995" y="10.1801" width="196.685" height="35.252" filterUnits="userSpaceOnUse" color-interpolation-filters="sRGB">
<feFlood flood-opacity="0" result="BackgroundImageFix"/>
<feColorMatrix in="SourceAlpha" type="matrix" values="0 0 0 0 0 0 0 0 0 0 0 0 0 0 0 0 0 0 127 0" result="hardAlpha"/>
<feOffset dy="4"/>
<feGaussianBlur stdDeviation="2"/>
<feComposite in2="hardAlpha" operator="out"/>
<feColorMatrix type="matrix" values="0 0 0 0 0 0 0 0 0 0 0 0 0 0 0 0 0 0 0.25 0"/>
<feBlend mode="normal" in2="BackgroundImageFix" result="effect1_dropShadow_68_459"/>
<feBlend mode="normal" in="SourceGraphic" in2="effect1_dropShadow_68_459" result="shape"/>
</filter>
</defs>
</svg>
